<svg data-v-423bf9ae="" xmlns="http://www.w3.org/2000/svg" viewBox="0 0 242.88678284818602 60" class="font"><!----><defs data-v-423bf9ae=""><linearGradient data-v-423bf9ae="" gradientTransform="rotate(25)" id="1c6add00-80cb-49ea-b916-331485053141" x1="0%" y1="0%" x2="100%" y2="0%"><stop data-v-423bf9ae="" offset="0%" style="stop-opacity: 1;"></stop><stop data-v-423bf9ae="" offset="100%" style="stop-opacity: 1;"></stop></linearGradient></defs><defs data-v-423bf9ae=""><linearGradient data-v-423bf9ae="" gradientTransform="rotate(25)" id="c1d58665-c842-4d80-b459-080824b26fa0" x1="0%" y1="0%" x2="100%" y2="0%"><stop data-v-423bf9ae="" offset="0%" style="stop-color: rgb(0, 118, 221); stop-opacity: 1;"></stop><stop data-v-423bf9ae="" offset="100%" style="stop-color: rgb(230, 0, 233); stop-opacity: 1;"></stop></linearGradient></defs><g data-v-423bf9ae="" id="2c1df85c-dc00-4ca4-bd9e-ce8b102de788" fill="url(#c1d58665-c842-4d80-b459-080824b26fa0)" transform="matrix(5.660377154786554,0,0,5.660377154786554,0.8490546880113925,-16.245281786458648)"><path d="M7.39 13.47L9.24 2.87L6.40 2.87L4.61 7.48L4.52 7.48L4.45 2.87L1.71 2.87L-0.15 13.47L1.65 13.47L2.77 7.11L2.84 7.11L3.18 13.47L4.06 13.47L6.62 7.11L6.69 7.11L5.57 13.47ZM10.89 13.47L12.75 2.87L10.72 2.87L8.86 13.47ZM18.00 13.47L18.00 13.40L17.42 7.78L19.74 2.94L19.75 2.87L17.64 2.87L15.61 7.31L15.48 7.31C15.53 7.13 15.57 6.96 15.61 6.73L16.30 2.87L14.27 2.87L12.40 13.47L14.43 13.47L15.13 9.49C15.18 9.23 15.22 8.95 15.23 8.71L15.36 8.71L15.79 13.47ZM24.19 13.47L25.10 2.87L21.77 2.87L18.89 13.47L20.89 13.47L21.46 11.02L22.41 11.02L22.16 13.47ZM22.71 8.88L21.92 8.88L22.92 5.08L23.06 5.08ZM29.40 13.47L29.81 11.12L27.76 11.12L29.22 2.87L27.24 2.87L25.38 13.47ZM34.80 13.47L35.21 11.12L32.98 11.12L33.33 9.11L35.53 9.11L35.91 6.97L33.71 6.97L34.05 5.11L36.29 5.11L36.68 2.87L32.47 2.87L30.60 13.47ZM39.24 13.47C40.74 13.47 41.40 12.82 41.76 11.26C41.92 10.51 42.07 9.79 42.07 9.06C42.07 8.46 41.87 8.25 41.57 8.05L41.58 7.95C42.06 7.63 42.28 7.38 42.49 6.44C42.62 5.80 42.76 5.17 42.76 4.52C42.76 3.36 42.24 2.87 40.92 2.87L38.09 2.87L36.23 13.47ZM38.57 11.33L38.99 8.97L39.66 8.97C39.91 8.97 40.04 9.07 40.04 9.44C40.04 9.81 39.97 10.16 39.90 10.49C39.76 11.10 39.54 11.33 39.13 11.33ZM39.30 7.22L39.70 4.97L40.24 4.97C40.54 4.97 40.67 5.03 40.67 5.35C40.67 5.75 40.57 6.15 40.47 6.50C40.33 7.01 40.15 7.22 39.83 7.22Z"></path></g><!----><!----></svg>