<svg xmlns="http://www.w3.org/2000/svg" viewBox="0 0 31.11 8.52"><defs><style>.cls-1{fill:#1d1d1b;}</style></defs><g id="Calque_2" data-name="Calque 2"><g id="Calque_1-2" data-name="Calque 1"><polygon class="cls-1" points="6.72 0 6.56 0 4.34 4.45 2.14 0 0 0 0 8.52 1.97 8.52 1.97 3.44 3.8 7.14 4.88 7.14 6.72 3.44 6.72 0"/><polygon class="cls-1" points="12.65 3.8 15.84 0 13.64 0 10.52 3.67 10.52 0 8.55 0 8.55 8.52 10.52 8.52 10.52 6.01 11.4 5.1 13.8 8.52 14.05 8.52 14.7 6.63 12.65 3.8"/><path class="cls-1" d="M31.11,6.34a2,2,0,0,1-.35,1.21,2.13,2.13,0,0,1-1,.73,3.61,3.61,0,0,1-1.33.24h-3.8V0H29A1.51,1.51,0,0,1,30,.32a2,2,0,0,1,.61.82,2.68,2.68,0,0,1,.21,1,2.44,2.44,0,0,1-.28,1.15,1.88,1.88,0,0,1-.83.82,2,2,0,0,1,1,.77A2.41,2.41,0,0,1,31.11,6.34ZM26.6,1.68V3.44h1.89a.86.86,0,0,0,.39-.09.78.78,0,0,0,.3-.3.91.91,0,0,0,.12-.49,1,1,0,0,0-.1-.48.79.79,0,0,0-.27-.3.64.64,0,0,0-.37-.1Zm3,4.26a1.1,1.1,0,0,0-.1-.49.83.83,0,0,0-.28-.33.62.62,0,0,0-.4-.13H26.6V6.85h2.14a.83.83,0,0,0,.44-.12,1.05,1.05,0,0,0,.31-.32A1,1,0,0,0,29.6,5.94Z"/><polygon class="cls-1" points="22.57 6.79 20.65 6.79 20.63 6.79 19.07 6.79 19.07 0 17.1 0 17.1 8.52 21.15 8.52 21.18 8.52 23.16 8.52 22.57 6.79"/></g></g></svg>